# xmcd CD database file
#
# Track frame offsets:
#	150
#	25928
#	45731
#	70019
#	91142
#	113735
#	131325
#	154183
#
# Disc length: 2302 seconds
#
# Revision: 3
# Processed by: cddbd v1.5.2PL0 Copyright (c) Steve Scherf et al.
# Submitted via: CDex 1.70beta2
#
DISCID=5c08fc08
DTITLE=Rio - ガラクタ
DYEAR=2012
DGENRE=Blues
TTITLE0=ガラクタ
TTITLE1=CAOL-ILAが泣く
TTITLE2=あんたがジャンプした
TTITLE3=俺のカルメン
TTITLE4=CREW
TTITLE5=pardy
TTITLE6=火花
TTITLE7=埃まみれ
EXTD=YEAR: 2012
EXTT0=
EXTT1=
EXTT2=
EXTT3=
EXTT4=
EXTT5=
EXTT6=
EXTT7=
PLAYORDER=
